<?xml version="1.0" encoding="utf-8"?>
<!-- Generator: Adobe Illustrator 25.4.1, SVG Export Plug-In . SVG Version: 6.00 Build 0)  -->
<svg version="1.1" id="Layer_1" xmlns="http://www.w3.org/2000/svg" xmlns:xlink="http://www.w3.org/1999/xlink" x="0px" y="0px"
	 viewBox="0 0 89.33 28" style="enable-background:new 0 0 89.33 28;" xml:space="preserve">
<style type="text/css">
	.st0{fill:#333333;}
</style>
<g>
	<path class="st0" d="M89.31,15.18c0-0.02,0-0.03-0.01-0.04c0-0.13-0.01-0.27-0.02-0.4c-0.01-0.13-0.03-0.27-0.04-0.4
		c0-0.03,0-0.07-0.01-0.1c-0.3-2.2-1.95-4.24-3.91-5.25c-0.9-0.44-1.89-0.67-2.9-0.67h-1.68c0,0,0,0,0,0h-1.03h-1.93h-0.54h-0.74
		h-0.3h-0.44h-0.3h-1.18h-0.74c-0.44,0-0.52,0.08-0.47,0.51c0.06,0.67,0.23,1.32,0.51,1.93c0.13,0.26,0.29,0.51,0.46,0.76
		c0.13,0.21,0.37,0.33,0.62,0.31h0.64c0.03,0,0.07,0,0.1,0h0.43h0.74h0.66c0.03,0,0.07,0,0.1,0h0.11h0.82c0.03,0,0.07,0,0.1,0h1.01
		h0.1c0,0,0,0,0,0h3.24c0.04,0,0.06,0,0.11,0.01l0.1,0.01c0.09,0.01,0.13,0.02,0.22,0.04c1.56,0.35,2.61,1.72,2.63,3.25
		c0.01,0.26-0.01,0.52-0.07,0.78c-0.08,0.42-0.24,0.82-0.46,1.16c-0.2,0.33-0.46,0.61-0.78,0.84c-0.34,0.26-0.72,0.45-1.15,0.56
		c-1.21,0.39-2.54,0.03-3.4-0.92c-0.62-0.6-0.95-1.42-0.94-2.28v-0.42c0,0,0,0,0,0v-0.38v-1.32v-0.38c0-0.29-0.14-0.43-0.41-0.4
		c-0.67,0.07-1.34,0.23-1.96,0.5c-0.26,0.13-0.52,0.28-0.77,0.44c-0.25,0.13-0.4,0.41-0.37,0.7v0.25c0,0.04,0,0.08,0,0.12
		c0,0,0,0,0,0v0.98c0,0.17-0.02,0.35-0.04,0.52c-0.2,0.94-0.78,1.76-1.62,2.25c-1.63,0.95-3.72,0.41-4.67-1.21
		c-0.2-0.36-0.33-0.74-0.41-1.14c0.16-1.8-0.39-3.65-1.63-5.1c-2.48-2.9-6.83-3.24-9.73-0.76c-1.35,1.12-2.19,2.73-2.35,4.47
		c-0.07,0.56-0.07,1.15-0.06,1.74c0,0,0,0,0,0c0,0.13,0,0.26,0,0.38c0,0.19,0.08,0.37,0.24,0.48c0.21,0.16,0.42,0.29,0.65,0.42
		c0.7,0.34,1.46,0.55,2.23,0.62c0.27,0.02,0.39-0.1,0.39-0.39v-1.46c0-0.37-0.04-0.75-0.01-1.12c0.04-1.01,0.52-1.94,1.33-2.55
		c0.28-0.22,0.61-0.39,0.95-0.52c1.78-0.63,3.72,0.3,4.36,2.08c0.33,0.94,0.23,1.93-0.21,2.75c-0.39,0.73-1.04,1.32-1.88,1.62
		c-0.34,0.1-0.59,0.19-0.89,0.22h-7.36v0c0,0,0,0,0,0c-1.81-0.11-3.23-1.63-3.2-3.47V1.61c0-0.27-0.14-0.52-0.36-0.67
		C50.36,0.39,49.41,0.06,48.42,0c-0.25-0.02-0.37,0.11-0.37,0.36v11.58c-0.01,0-0.02,0-0.02,0v3.4c0,0.08,0,0.16,0.01,0.24
		c0,0,0,0,0,0c0.01,0.25,0.03,0.49,0.07,0.74c0.21,1.36,0.8,2.57,1.66,3.53c0,0,0,0,0-0.01c0.16,0.17,0.32,0.34,0.49,0.49
		c0.81,0.73,1.75,1.24,2.73,1.52c0.54,0.15,1.09,0.24,1.65,0.26c0.03,0,0.06,0,0.08,0h6.73c0.01,0,0.02,0,0.03-0.01
		c0.03,0,0.06-0.01,0.08-0.01c0.19,0.01,0.39,0.01,0.58,0c0.77-0.04,1.55-0.21,2.3-0.51c0.95-0.39,1.77-0.98,2.43-1.69
		c0.01-0.01,0.02-0.02,0.03-0.03l0.03-0.02c0.15,0.17,0.31,0.33,0.48,0.48c2.84,2.58,7.24,2.36,9.82-0.48
		c0.15,0.17,0.32,0.34,0.49,0.49c2.49,2.25,6.13,2.36,8.74,0.48c0.08-0.06,0.17-0.12,0.25-0.19c0.3-0.24,0.56-0.49,0.83-0.78
		c0.01,0.01,0.01,0.01,0.01,0.02C88.72,18.57,89.34,16.9,89.31,15.18z"/>
	<path class="st0" d="M44.32,0.04c-0.99,0.06-1.95,0.38-2.76,0.94c-0.23,0.14-0.36,0.4-0.36,0.67v13.64c0,1.79-1.39,3.25-3.15,3.39
		c-0.09,0-0.17,0.03-0.26,0.03c-1.88,0-3.41-1.52-3.41-3.41v-5.19c0.03-0.29-0.11-0.56-0.35-0.71c-0.24-0.15-0.49-0.29-0.75-0.43
		c-0.59-0.25-1.22-0.42-1.86-0.49c-0.45-0.05-0.54,0.03-0.54,0.49v6.52c0.01,0.1,0.01,0.2,0,0.31c-0.14,0.93-0.65,1.72-1.36,2.24
		c0-0.01-0.01-0.01-0.01-0.02c-0.31,0.23-0.67,0.4-1.06,0.5c-0.4,0.13-0.83,0.18-1.24,0.14c-0.13,0-0.25-0.02-0.38-0.05
		c-0.13-0.03-0.24-0.06-0.36-0.1c-0.08-0.02-0.17-0.05-0.24-0.09c-0.13-0.05-0.25-0.11-0.37-0.18c-0.09-0.05-0.19-0.1-0.27-0.17
		c-0.05-0.03-0.08-0.05-0.13-0.09c-0.03-0.03-0.08-0.06-0.12-0.1c-0.03-0.03-0.06-0.07-0.09-0.08c-0.07-0.06-0.13-0.13-0.19-0.19
		c-0.62-0.6-0.95-1.43-0.94-2.29v-1.33c0.03-0.29-0.12-0.56-0.36-0.71c-0.25-0.16-0.51-0.3-0.78-0.43c-0.62-0.27-1.29-0.44-1.96-0.5
		c-0.27-0.03-0.41,0.1-0.41,0.4v2.67c0,0.18-0.01,0.35-0.04,0.52c-0.12,0.6-0.4,1.14-0.8,1.59c-0.23,0.26-0.51,0.48-0.81,0.66
		c-1.62,0.96-3.72,0.41-4.67-1.21c-0.2-0.37-0.32-0.77-0.4-1.18c0-0.02-0.01-0.05-0.01-0.07c0-0.03-0.01-0.06-0.01-0.08
		c0.04-0.96-0.13-1.95-0.52-2.88c-0.39-0.95-0.98-1.77-1.69-2.43c-0.01-0.01-0.02-0.02-0.04-0.03c-0.23-0.2-0.46-0.41-0.72-0.59
		C8.29,7.9,4.82,8.06,2.43,10.11c-2.9,2.48-3.24,6.83-0.76,9.73c1.12,1.35,2.73,2.19,4.47,2.35c0.56,0.07,1.15,0.07,1.74,0.06
		c0,0,0,0,0,0c0.13,0,0.26,0,0.38,0c0.19,0,0.37-0.08,0.48-0.24c0.16-0.21,0.29-0.42,0.42-0.64c0.34-0.7,0.55-1.46,0.62-2.23
		c0.02-0.27-0.1-0.39-0.39-0.39h-1.2H8.06H7.94c-0.37,0-0.75,0.04-1.12,0.01c-1.01-0.04-1.94-0.52-2.55-1.33
		c-0.22-0.28-0.39-0.61-0.52-0.95c-0.63-1.78,0.3-3.72,2.08-4.36c0.94-0.33,1.93-0.23,2.75,0.21c0.73,0.39,1.32,1.04,1.62,1.88
		c0.14,0.46,0.2,0.95,0.17,1.44c0,0.48,0,0.96,0,1.43c0,2.71,0,5.42,0,8.14c-0.02,0.36,0.1,0.46,0.43,0.43
		c0.58-0.07,1.14-0.2,1.69-0.39c0.38-0.14,0.73-0.32,1.04-0.57c0.22-0.16,0.34-0.41,0.33-0.68l0-2.73c0,0,0,0,0.01,0
		c1.82,1.01,3.99,1.13,5.88,0.39c0.97-0.38,1.87-0.98,2.62-1.81c0.15,0.18,0.32,0.34,0.49,0.5c0.12,0.1,0.23,0.2,0.35,0.3
		c-0.01,0.01-0.03,0.02-0.04,0.03c0.33,0.24,0.67,0.46,1.03,0.64c0.13,0.07,0.24,0.12,0.36,0.18c0.04,0.03,0.09,0.05,0.13,0.07
		c0.11,0.05,0.23,0.09,0.34,0.13c0.01,0.01,0.02,0.01,0.03,0.01c0.17,0.07,0.34,0.12,0.51,0.16c0.19,0.06,0.39,0.11,0.58,0.14
		c0.09,0.03,0.19,0.04,0.28,0.05c0.12,0.02,0.24,0.03,0.35,0.05c0.12,0.01,0.24,0.02,0.36,0.03c0.35,0.03,0.7,0.02,1.05-0.03
		c0.12-0.02,0.24-0.03,0.35-0.04c0.84-0.12,1.68-0.4,2.44-0.84c0-0.01,0.01-0.02,0.01-0.03c0.59-0.35,1.14-0.79,1.62-1.32
		c0.16,0.18,0.33,0.35,0.5,0.5c1.41,1.27,3.19,1.85,4.95,1.79c1.29-0.05,2.56-0.49,3.67-1.26v0.01c0.08-0.05,0.15-0.12,0.22-0.17
		c0.1-0.08,0.2-0.13,0.29-0.21l-0.01-0.01c1.26-1.04,2.13-2.53,2.39-4.24c0.04-0.33,0.07-0.65,0.08-0.98V0.4
		C44.68,0.14,44.56,0.01,44.32,0.04z"/>
	<path class="st0" d="M32.08,24.69c-0.19-0.13-0.39-0.26-0.62-0.38c-0.16-0.09-0.37-0.09-0.57-0.02c0,0-0.01,0-0.01,0
		c-0.01,0-0.02,0.01-0.03,0.01c-1,0.48-2.2,0.75-3.47,0.75c-0.01,0-0.01,0-0.02,0s-0.01,0-0.02,0c-1.28,0-2.47-0.28-3.47-0.75
		c-0.01,0-0.02-0.01-0.03-0.01c0,0-0.01,0-0.01,0c-0.2-0.07-0.41-0.06-0.57,0.02c-0.23,0.11-0.43,0.24-0.62,0.38
		c-0.55,0.45-0.98,0.99-1.27,1.6c-0.06,0.14-0.04,0.25,0.06,0.33c0.09,0.05,0.18,0.09,0.28,0.14c1.62,0.78,3.56,1.24,5.63,1.24
		c0.01,0,0.01,0,0.02,0s0.01,0,0.02,0c2.07,0,4.01-0.45,5.63-1.24c0.09-0.05,0.19-0.09,0.28-0.14c0.11-0.09,0.12-0.2,0.06-0.33
		C33.06,25.68,32.63,25.14,32.08,24.69z"/>
	<path class="st0" d="M17.57,10.25c0.19,0.13,0.39,0.26,0.62,0.38c0.16,0.09,0.37,0.09,0.57,0.02c0,0,0.01,0,0.01,0
		c0.01,0,0.02-0.01,0.03-0.01c1-0.48,2.2-0.75,3.47-0.75c0.01,0,0.01,0,0.02,0s0.01,0,0.02,0c1.28,0,2.47,0.28,3.47,0.75
		c0.01,0,0.02,0.01,0.03,0.01c0,0,0.01,0,0.01,0c0.2,0.07,0.41,0.06,0.57-0.02c0.23-0.11,0.43-0.24,0.62-0.38
		c0.55-0.45,0.98-0.99,1.27-1.6c0.06-0.14,0.04-0.25-0.06-0.33c-0.09-0.05-0.18-0.09-0.28-0.14c-1.62-0.78-3.56-1.24-5.63-1.24
		c-0.01,0-0.01,0-0.02,0s-0.01,0-0.02,0c-2.07,0-4.01,0.45-5.63,1.24c-0.09,0.05-0.19,0.09-0.28,0.14c-0.11,0.09-0.12,0.2-0.06,0.33
		C16.59,9.25,17.01,9.8,17.57,10.25z"/>
	<path class="st0" d="M57.13,5.7c0.19,0.13,0.39,0.26,0.62,0.38c0.16,0.09,0.37,0.09,0.57,0.02c0,0,0.01,0,0.01,0
		c0.01,0,0.02-0.01,0.03-0.01c1-0.48,2.2-0.75,3.47-0.75c0.01,0,0.01,0,0.02,0c0.01,0,0.01,0,0.02,0c1.28,0,2.47,0.28,3.47,0.75
		c0.01,0,0.02,0.01,0.03,0.01c0,0,0.01,0,0.01,0c0.2,0.07,0.41,0.06,0.57-0.02c0.23-0.11,0.43-0.24,0.62-0.38
		c0.55-0.45,0.98-0.99,1.27-1.6c0.06-0.14,0.04-0.25-0.06-0.33c-0.09-0.05-0.18-0.09-0.28-0.14c-1.62-0.78-3.56-1.24-5.63-1.24
		c-0.01,0-0.01,0-0.02,0c-0.01,0-0.01,0-0.02,0c-2.07,0-4.01,0.45-5.63,1.24c-0.09,0.05-0.19,0.09-0.28,0.14
		c-0.11,0.09-0.12,0.2-0.06,0.33C56.15,4.71,56.58,5.25,57.13,5.7z"/>
</g>
</svg>
