<svg xmlns="http://www.w3.org/2000/svg" viewBox="0 0 80 80"><path d="M78.58,17.14A17.45,17.45,0,0,0,62.86,1.42,224.33,224.33,0,0,0,40,0,224.33,224.33,0,0,0,17.14,1.42,17.45,17.45,0,0,0,1.42,17.14C.88,24.24,0,29.72,0,40c0,5.21.23,9.18.52,12.76a13.19,13.19,0,0,0,11.53-.9,13.3,13.3,0,0,0,6.27-8.71,15.68,15.68,0,0,0,.16-2v-3.8h0a3.68,3.68,0,0,1,0-.47v-1a2.78,2.78,0,0,1,1.44-2.71,25.62,25.62,0,0,1,3-1.7,25.59,25.59,0,0,1,7.6-1.92c1-.13,1.6.39,1.6,1.53v8h0v1.62a11.94,11.94,0,0,0,3.62,8.84,12.51,12.51,0,0,0,13.15,3.56A12.31,12.31,0,0,0,53.33,51a11.38,11.38,0,0,0,3-3.26,12.05,12.05,0,0,0,1.79-4.5,12,12,0,0,0,.27-3A13,13,0,0,0,48.2,27.59a4.81,4.81,0,0,0-.84-.17L47,27.37c-.17,0-.24,0-.41,0H15.39A2.56,2.56,0,0,1,13,26.13a26.51,26.51,0,0,1-1.77-2.93,23.71,23.71,0,0,1-2-7.49c-.18-1.66.13-2,1.82-2h34.4a25.36,25.36,0,0,1,11.22,2.59c7.6,3.88,14,11.8,15.15,20.32a1.71,1.71,0,0,1,0,.39c.07.52.13,1,.17,1.57s.06,1,.06,1.56a.34.34,0,0,1,0,.17,26.05,26.05,0,0,1-6.85,18.1s0,0,0-.06a27.35,27.35,0,0,1-3.2,3,8.24,8.24,0,0,1-1,.75,26.93,26.93,0,0,1-33.83-1.86,26.07,26.07,0,0,1-1.9-1.89A26.91,26.91,0,0,1,2.32,67,17.59,17.59,0,0,0,17.14,78.58,224.33,224.33,0,0,0,40,80a224.33,224.33,0,0,0,22.86-1.42A17.45,17.45,0,0,0,78.58,62.86C79.12,55.76,80,50.28,80,40S79.12,24.24,78.58,17.14Z" transform="translate(0 0)"/></svg>